Coordinates
version=1
nRows=24
nColumns=38
inDegrees=no

Units are S.I. units (second, meters, Newtons, ...)
If the header above contains a line with 'inDegrees', this indicates whether rotational values are in degrees (yes) or radians (no).

endheader
time	pelvis_tilt	pelvis_list	pelvis_rotation	pelvis_tx	pelvis_ty	pelvis_tz	hip_flexion_r	hip_adduction_r	hip_rotation_r	knee_angle_r	ankle_angle_r	subtalar_angle_r	mtp_angle_r	hip_flexion_l	hip_adduction_l	hip_rotation_l	knee_angle_l	ankle_angle_l	subtalar_angle_l	mtp_angle_l	lumbar_extension	lumbar_bending	lumbar_rotation	arm_flex_r	arm_add_r	arm_rot_r	elbow_flex_r	pro_sup_r	wrist_flex_r	wrist_dev_r	arm_flex_l	arm_add_l	arm_rot_l	elbow_flex_l	pro_sup_l	wrist_flex_l	wrist_dev_l
5	-0.171118	1.49989	1.77431	0.632637	0.234619	0.944684	0.629524	-0.131486	-0.0696276	0.928403	-0.173628	0	0	0.527899	-0.189299	-0.284761	0.882303	-0.184987	0	0	-0.688031	-0.00525806	0.0278606	0.83461	-0.679996	0.502157	1.19197	0.417756	0	0	1.00215	-0.527789	0.611542	1.11032	0.625846	0	0
5.01	-0.153298	1.49343	1.75809	0.633278	0.232421	0.940633	0.648238	-0.132638	-0.0695519	0.944793	-0.160308	0	0	0.547722	-0.190658	-0.277298	0.900655	-0.172459	0	0	-0.693348	-0.00553297	0.0282456	0.843208	-0.679906	0.497712	1.19202	0.424474	0	0	1.01385	-0.524958	0.610022	1.10908	0.630198	0	0
5.02	-0.145187	1.49108	1.75078	0.633897	0.230249	0.937046	0.661772	-0.133371	-0.0695138	0.959738	-0.156215	0	0	0.561578	-0.192482	-0.272009	0.916852	-0.16621	0	0	-0.703307	-0.0052962	0.0290245	0.855681	-0.681192	0.498628	1.19189	0.426085	0	0	1.02623	-0.522859	0.609092	1.10808	0.631661	0	0
5.03	-0.137651	1.48857	1.74348	0.634556	0.228101	0.933468	0.675386	-0.133573	-0.0686843	0.974198	-0.152718	0	0	0.575394	-0.194132	-0.266783	0.932871	-0.160561	0	0	-0.71279	-0.00550762	0.0300385	0.867852	-0.682307	0.499068	1.19165	0.426802	0	0	1.03837	-0.520946	0.608331	1.1071	0.633246	0	0
5.04	-0.1291	1.48477	1.7348	0.635261	0.225994	0.929789	0.690485	-0.133627	-0.0676868	0.988568	-0.148917	0	0	0.590845	-0.195616	-0.261491	0.949367	-0.154571	0	0	-0.72038	-0.00643842	0.0310876	0.878985	-0.682621	0.498367	1.1908	0.427653	0	0	1.04998	-0.519127	0.607371	1.1062	0.634203	0	0
5.05	-0.125907	1.48421	1.73122	0.635911	0.223915	0.926518	0.701485	-0.134083	-0.068279	1.00198	-0.149458	0	0	0.602207	-0.197271	-0.257281	0.965004	-0.151938	0	0	-0.731933	-0.00715464	0.0320221	0.892447	-0.683542	0.499986	1.18991	0.425395	0	0	1.06268	-0.518102	0.607133	1.10583	0.632171	0	0
5.06	-0.117931	1.47998	1.7229	0.636482	0.221842	0.92292	0.716424	-0.134141	-0.0672671	1.01523	-0.146092	0	0	0.617979	-0.198041	-0.251479	0.981001	-0.146775	0	0	-0.739552	-0.0080062	0.032843	0.903925	-0.684439	0.499691	1.19013	0.426196	0	0	1.07441	-0.517489	0.606852	1.10624	0.632956	0	0
5.07	-0.109691	1.47468	1.71439	0.637036	0.219748	0.919316	0.73217	-0.133749	-0.0651654	1.02782	-0.142947	0	0	0.634533	-0.198441	-0.245319	0.996031	-0.141677	0	0	-0.746197	-0.00885871	0.0334234	0.915119	-0.685286	0.498932	1.19082	0.426692	0	0	1.08606	-0.517195	0.606683	1.10702	0.634246	0	0
5.08	-0.101885	1.46889	1.70649	0.637602	0.217651	0.915791	0.747993	-0.133277	-0.0627615	1.03974	-0.139948	0	0	0.651074	-0.198635	-0.239099	1.0098	-0.136896	0	0	-0.75232	-0.00978856	0.0336588	0.926245	-0.685595	0.497913	1.1911	0.427568	0	0	1.09782	-0.517168	0.606851	1.1078	0.635419	0	0
5.09	-0.0912309	1.4577	1.69639	0.638086	0.215595	0.911804	0.770083	-0.133557	-0.0601549	1.05269	-0.134099	0	0	0.674011	-0.197618	-0.231079	1.02382	-0.129948	0	0	-0.752379	-0.0102734	0.0333139	0.93454	-0.685107	0.494096	1.19215	0.433315	0	0	1.10674	-0.516242	0.603736	1.10859	0.639952	0	0
5.1	-0.0863085	1.45181	1.69195	0.638488	0.213529	0.908464	0.785437	-0.134458	-0.059089	1.06409	-0.132196	0	0	0.69015	-0.197402	-0.225155	1.03616	-0.126773	0	0	-0.758685	-0.0102005	0.0327563	0.946685	-0.685294	0.493909	1.19267	0.434306	0	0	1.11724	-0.515508	0.601025	1.10891	0.641248	0	0
5.11	-0.0810719	1.44643	1.68695	0.6389	0.211519	0.905226	0.800033	-0.135377	-0.0584853	1.07495	-0.130778	0	0	0.705617	-0.198005	-0.22028	1.04851	-0.124342	0	0	-0.765686	-0.0101682	0.0321507	0.959258	-0.685283	0.494073	1.19318	0.435406	0	0	1.12761	-0.515375	0.598418	1.10968	0.642866	0	0
5.12	-0.0778062	1.44175	1.68363	0.639312	0.209557	0.902121	0.813645	-0.136573	-0.0583682	1.08514	-0.129627	0	0	0.719966	-0.199331	-0.216804	1.06066	-0.1227	0	0	-0.773322	-0.0104591	0.0314269	0.97231	-0.684861	0.494788	1.1928	0.43762	0	0	1.13816	-0.515371	0.596096	1.11015	0.64443	0	0
5.13	-0.0782638	1.43682	1.68436	0.639676	0.207602	0.899071	0.82723	-0.13884	-0.0589863	1.09481	-0.128238	0	0	0.734412	-0.200178	-0.213612	1.07243	-0.121557	0	0	-0.780663	-0.0113307	0.0296373	0.985122	-0.683357	0.494793	1.19167	0.4405	0	0	1.14943	-0.516506	0.595504	1.11101	0.645339	0	0
5.14	-0.0816919	1.43166	1.68828	0.640046	0.205626	0.896072	0.840752	-0.141865	-0.060078	1.10414	-0.126687	0	0	0.748863	-0.200431	-0.210471	1.08361	-0.120762	0	0	-0.787776	-0.0122183	0.0275173	0.997773	-0.681897	0.494429	1.19088	0.443182	0	0	1.16085	-0.517428	0.594961	1.11135	0.645684	0	0
5.15	-0.0830849	1.42601	1.68911	0.6405	0.203764	0.892987	0.854703	-0.14404	-0.06089	1.11331	-0.125242	0	0	0.763386	-0.201961	-0.208692	1.09481	-0.11969	0	0	-0.793606	-0.0132893	0.0265202	1.00996	-0.680856	0.494524	1.19021	0.445504	0	0	1.17097	-0.517169	0.59287	1.11066	0.646878	0	0
5.16	-0.0822465	1.41918	1.68706	0.640961	0.201985	0.889742	0.869964	-0.145647	-0.0614011	1.12254	-0.12394	0	0	0.778948	-0.204362	-0.207936	1.10616	-0.118277	0	0	-0.797441	-0.0143317	0.0261248	1.02146	-0.679892	0.494784	1.18958	0.447707	0	0	1.17932	-0.51599	0.588924	1.10909	0.649389	0	0
5.17	-0.0804679	1.41148	1.68396	0.641371	0.20021	0.886387	0.886187	-0.147203	-0.0617304	1.13173	-0.122782	0	0	0.795311	-0.206917	-0.20775	1.11746	-0.116535	0	0	-0.800303	-0.0154713	0.0255801	1.03268	-0.678999	0.495039	1.18936	0.44914	0	0	1.18735	-0.515762	0.585842	1.10825	0.651999	0	0
5.18	-0.079722	1.40368	1.68186	0.641739	0.198411	0.883054	0.902322	-0.148736	-0.0616745	1.14054	-0.121621	0	0	0.81145	-0.2094	-0.208213	1.1285	-0.114714	0	0	-0.803322	-0.0169582	0.0248479	1.04388	-0.678443	0.49527	1.18961	0.449882	0	0	1.19616	-0.516572	0.584582	1.10851	0.654191	0	0
5.19	-0.0805889	1.39582	1.68178	0.642027	0.19659	0.879809	0.918203	-0.150702	-0.06127	1.14886	-0.120762	0	0	0.827384	-0.211118	-0.20855	1.13895	-0.11346	0	0	-0.806623	-0.0184537	0.0234375	1.05527	-0.678026	0.495636	1.19005	0.450625	0	0	1.20554	-0.518437	0.584615	1.10993	0.656613	0	0
5.2	-0.082534	1.38811	1.68341	0.642215	0.19476	0.87671	0.933696	-0.153547	-0.0613264	1.15706	-0.120574	0	0	0.842912	-0.211821	-0.208201	1.14846	-0.112752	0	0	-0.810147	-0.0193261	0.0215605	1.06706	-0.677809	0.496506	1.19048	0.451422	0	0	1.21456	-0.519686	0.583675	1.1109	0.659807	0	0
5.21	-0.0839487	1.38006	1.68481	0.642341	0.192956	0.873718	0.949366	-0.156669	-0.0615923	1.16493	-0.120807	0	0	0.858647	-0.212074	-0.20715	1.15728	-0.112364	0	0	-0.813398	-0.0198564	0.0195395	1.07881	-0.677768	0.497496	1.19111	0.452516	0	0	1.22316	-0.520961	0.582396	1.11199	0.662986	0	0
5.22	-0.083683	1.37131	1.68438	0.642467	0.191257	0.870771	0.965551	-0.159331	-0.0617634	1.17218	-0.121242	0	0	0.874997	-0.212621	-0.206001	1.16575	-0.112493	0	0	-0.815702	-0.0200511	0.0181802	1.09005	-0.678182	0.498507	1.19203	0.454395	0	0	1.23016	-0.520733	0.578401	1.11271	0.665578	0	0
5.23	-0.0814707	1.36227	1.68175	0.642633	0.189653	0.867852	0.981793	-0.161302	-0.0621495	1.17875	-0.121631	0	0	0.891622	-0.213691	-0.20479	1.17414	-0.11263	0	0	-0.817287	-0.0200073	0.017683	1.10077	-0.678884	0.49944	1.19307	0.455869	0	0	1.23565	-0.51932	0.572293	1.11322	0.668262	0	0
